<?xml version="1.0" standalone="no"?>
<!DOCTYPE svg PUBLIC "-//W3C//DTD SVG 20010904//EN"
 "http://www.w3.org/TR/2001/REC-SVG-20010904/DTD/svg10.dtd">
<svg version="1.0" xmlns="http://www.w3.org/2000/svg"
 width="75.000000pt" height="44.000000pt" viewBox="0 0 75.000000 44.000000"
 preserveAspectRatio="xMidYMid meet">

<g transform="translate(0.000000,44.000000) scale(0.100000,-0.100000)"
fill="#000000" stroke="none">
<path d="M302 427 c-50 -19 -102 -65 -123 -111 -24 -53 -24 -76 0 -76 13 0 24
14 36 45 19 51 65 91 113 101 25 5 32 12 32 30 0 26 -9 28 -58 11z"/>
<path d="M301 334 c-27 -34 -26 -54 0 -88 16 -20 19 -30 10 -39 -6 -6 -11 -24
-11 -39 0 -28 1 -28 60 -28 l60 0 0 30 c0 20 -5 30 -15 30 -14 0 -13 3 1 25 9
14 14 28 11 31 -3 3 -8 -4 -12 -15 -3 -12 -18 -28 -33 -36 l-27 -14 33 -1 c25
0 32 -4 32 -20 0 -17 -7 -20 -50 -20 -44 0 -50 2 -50 21 0 11 18 41 40 67 22
25 37 48 34 51 -4 3 -9 0 -11 -6 -3 -7 -13 -23 -24 -35 l-19 -23 -20 24 c-11
13 -20 31 -20 40 0 30 29 60 63 64 l32 4 -32 1 c-23 2 -37 -5 -52 -24z"/>
<path d="M405 329 c9 -15 14 -31 13 -35 -2 -5 2 -9 7 -9 6 0 13 -20 16 -45 l6
-45 1 43 c1 24 -3 48 -8 55 -6 7 -19 23 -31 37 l-20 25 16 -26z"/>
<path d="M160 190 c0 -54 67 -137 132 -164 52 -22 70 -21 66 5 -2 14 -16 25
-41 34 -51 18 -83 49 -103 102 -11 29 -23 43 -35 43 -12 0 -19 -7 -19 -20z"/>
<path d="M532 172 c-14 -47 -57 -89 -108 -107 -26 -9 -40 -20 -42 -34 -5 -29
21 -27 85 4 55 28 95 77 111 138 10 35 9 37 -12 37 -18 0 -25 -9 -34 -38z"/>
<path d="M440 119 c0 -29 -2 -31 -30 -27 -16 3 -30 1 -30 -4 0 -5 15 -8 33 -6
26 2 33 8 35 30 2 15 11 29 20 31 12 3 10 5 -5 6 -19 1 -23 -4 -23 -30z"/>
</g>
</svg>
