<svg width="72" height="72" viewBox="0 0 72 72" fill="none" xmlns="http://www.w3.org/2000/svg">
<circle opacity="0.1" cx="36" cy="36" r="36" fill="#242468"/>
<mask id="mask0_1403_10430" style="mask-type:alpha" maskUnits="userSpaceOnUse" x="0" y="0" width="72" height="72">
<circle cx="36" cy="36" r="36" fill="#242468"/>
</mask>
<g mask="url(#mask0_1403_10430)">
<path d="M56.6377 61.1426C56.6377 61.1426 60.6831 63.5711 64.0355 71.8242C70.6155 88.0557 74.7546 96.7957 74.7546 96.7957L104.945 106.316L102.529 118.427C102.529 118.427 71.9016 114.157 67.8 112.621C62.1814 110.518 58.0236 99.449 58.0236 99.449L56.6377 61.1426Z" fill="#E0E0E0"/>
<path d="M48.3085 24.7821C49.0837 24.8106 49.8427 24.5558 50.4436 24.0652C51.0445 23.5745 51.446 22.8818 51.573 22.1165C51.7001 21.3513 51.5439 20.5659 51.1338 19.9075C50.7237 19.249 50.0877 18.7626 49.3448 18.5392C49.8063 18.0167 50.0913 17.362 50.1594 16.6681C50.2274 15.9743 50.075 15.2767 49.7237 14.6745C49.3725 14.0723 48.8404 13.5962 48.203 13.3138C47.5656 13.0314 46.8554 12.9572 46.1734 13.1016C46.1102 12.4182 45.871 11.7629 45.479 11.1996C45.0871 10.6363 44.5558 10.1841 43.937 9.88732C43.3182 9.59051 42.6331 9.45915 41.9484 9.50606C41.2638 9.55297 40.6029 9.77654 40.0304 10.155C39.2267 9.56717 38.2498 9.26454 37.2546 9.29507C36.2593 9.32561 35.3028 9.68756 34.5367 10.3235C33.865 10.2399 33.1843 10.3734 32.594 10.7044C32.0036 11.0354 31.5347 11.5466 31.2557 12.1632C30.9767 12.7799 30.9022 13.4696 31.0433 14.1315C31.1843 14.7934 31.5334 15.3929 32.0395 15.8422" fill="#263238"/>
<path d="M34.0132 13.4801H34.7124C38.1072 13.3086 41.4421 14.4226 44.0522 16.6001C46.6624 18.7776 48.3563 21.8586 48.7963 25.2292C49.6454 31.7343 50.5006 38.9261 50.6317 42.4284C50.9064 49.6826 43.7084 51.1684 43.7084 51.1684L44.7572 59.8461L27.1335 60.1769L24.0121 28.6628C22.982 21.1401 26.4905 14.2979 34.0132 13.4801Z" fill="#E0AE9D"/>
<path d="M43.7709 51.1341C40.4136 51.2958 37.08 50.4943 34.1631 48.8242C34.1631 48.8242 36.6602 53.9309 43.8583 52.9196L43.7709 51.1341Z" fill="#A26D5C"/>
<path d="M46.185 31.8937C46.2023 32.1629 46.1132 32.4283 45.937 32.6326C45.7607 32.8369 45.5113 32.9638 45.2423 32.9862C44.9808 33.0142 44.7188 32.9372 44.5139 32.7721C44.3091 32.6071 44.1781 32.3675 44.1498 32.1059C44.1359 31.8364 44.2269 31.572 44.4039 31.3682C44.5809 31.1645 44.8299 31.0373 45.0988 31.0134C45.2279 30.9996 45.3586 31.0114 45.4832 31.0482C45.6078 31.085 45.7238 31.146 45.8248 31.2278C45.9257 31.3096 46.0095 31.4106 46.0713 31.5248C46.1331 31.6391 46.1718 31.7644 46.185 31.8937Z" fill="#263238"/>
<path d="M47.4143 28.8263C47.2894 28.9699 46.4778 28.4267 45.3604 28.4829C44.2429 28.5391 43.4875 29.1384 43.3314 29.0135C43.1753 28.8887 43.3876 28.7014 43.731 28.4267C44.1965 28.0691 44.7613 27.8641 45.3479 27.8399C45.9276 27.8088 46.5022 27.9618 46.9897 28.2769C47.3456 28.5266 47.4705 28.7638 47.4143 28.8263Z" fill="#263238"/>
<path d="M36.0353 32.1741C36.0455 32.3099 36.0287 32.4464 35.9857 32.5757C35.9428 32.705 35.8747 32.8245 35.7853 32.9272C35.6959 33.03 35.5869 33.114 35.4648 33.1744C35.3427 33.2348 35.2099 33.2704 35.0739 33.2791C34.9428 33.2965 34.8096 33.2873 34.6821 33.2521C34.5546 33.217 34.4354 33.1566 34.3318 33.0744C34.2281 32.9923 34.142 32.8902 34.0786 32.7741C34.0152 32.6581 33.9758 32.5304 33.9627 32.3988C33.947 32.1299 34.0367 31.8655 34.2127 31.6615C34.3886 31.4576 34.6371 31.3302 34.9054 31.3063C35.037 31.2861 35.1713 31.2928 35.3002 31.3259C35.4291 31.359 35.55 31.4179 35.6556 31.499C35.7612 31.5801 35.8492 31.6817 35.9145 31.7977C35.9798 31.9137 36.0209 32.0417 36.0353 32.1741Z" fill="#263238"/>
<path d="M36.4725 29.5804C36.3477 29.7177 35.5361 29.1746 34.4249 29.237C33.3136 29.2994 32.5208 29.8613 32.3897 29.7614C32.2586 29.6615 32.4459 29.4555 32.7892 29.1746C33.2548 28.8169 33.8196 28.612 34.4061 28.5878C34.9866 28.5572 35.5617 28.7125 36.048 29.031C36.4039 29.2745 36.5287 29.5304 36.4725 29.5804Z" fill="#263238"/>
<path d="M40.9237 37.6476C41.5035 37.4346 42.1074 37.2941 42.7217 37.2294C43.0026 37.1857 43.2711 37.117 43.3085 36.9235C43.3161 36.6279 43.2357 36.3367 43.0775 36.0869C42.7716 35.4127 42.4533 34.701 42.1286 33.9643C40.8051 30.9365 39.8312 28.4394 39.9561 28.3894C40.081 28.3395 41.2484 30.7493 42.5719 33.7771C42.8903 34.52 43.1962 35.2316 43.4833 35.9121C43.6808 36.2467 43.7538 36.6402 43.6894 37.0234C43.6532 37.1259 43.5938 37.2187 43.5158 37.2945C43.4378 37.3703 43.3434 37.4271 43.2399 37.4604C43.0843 37.5121 42.9227 37.5435 42.7591 37.554C42.1538 37.6634 41.537 37.6948 40.9237 37.6476Z" fill="#263238"/>
<path d="M37.2285 25.2438C37.0911 25.5372 36.1235 25.275 34.9436 25.2937C33.7637 25.3124 32.7898 25.5621 32.6649 25.2937C32.615 25.1564 32.8085 24.8879 33.2205 24.6694C33.7534 24.3667 34.3557 24.2075 34.9686 24.2074C35.5715 24.1981 36.166 24.3489 36.6916 24.6444C37.0974 24.8442 37.2847 25.1064 37.2285 25.2438Z" fill="#263238"/>
<path d="M47.2739 24.2318C47.0492 24.494 46.119 24.2755 45.0078 24.3192C43.8965 24.3629 42.9788 24.5939 42.7478 24.3192C42.648 24.1944 42.7791 23.9321 43.1786 23.6949C43.7279 23.3666 44.3554 23.192 44.9953 23.1892C45.6317 23.16 46.264 23.3046 46.8245 23.6075C47.199 23.8447 47.3364 24.1007 47.2739 24.2318Z" fill="#263238"/>
<path d="M47.9341 21.9133C47.9341 21.9133 45.7927 17.4684 43.564 16.5195C40.8484 15.3708 39.8558 18.3362 37.3211 17.7681C34.7865 17.2 32.1645 16.0825 29.6798 18.1614C26.9642 20.44 28.3626 21.8696 28.3439 25.0972C28.2877 38.1761 26.0902 41.9842 25.1038 35.8724C24.9977 35.2045 23.0998 34.7612 22.6816 31.9332C22.1447 28.2624 21.7763 23.8174 22.4693 21.133C23.0561 18.8918 24.236 17.3061 26.4086 15.5144C29.8359 12.6863 34.7241 12.3929 38.064 12.5552C41.404 12.7176 47.9528 16.2136 47.9341 21.9133Z" fill="#263238"/>
<path d="M25.5225 35.6405C25.5002 35.3745 25.4243 35.1159 25.2992 34.8801C25.1741 34.6444 25.0025 34.4365 24.7947 34.269C24.5869 34.1015 24.3473 33.9779 24.0904 33.9056C23.8335 33.8334 23.5646 33.8141 23.3 33.8488C21.9515 34.0423 20.4907 34.8851 20.7154 37.6757C21.1212 42.6263 26.0032 41.1967 26.0032 41.0593C26.0032 40.922 25.7097 37.7069 25.5225 35.6405Z" fill="#E0AE9D"/>
<path d="M24.7989 39.2785C24.7989 39.2785 24.7177 39.3471 24.5804 39.4283C24.387 39.5251 24.1648 39.5473 23.9561 39.4907C23.413 39.3409 22.9073 38.548 22.8074 37.6616C22.7617 37.2399 22.8107 36.8133 22.951 36.413C22.9846 36.2543 23.0561 36.1062 23.1594 35.9812C23.2626 35.8562 23.3946 35.758 23.5441 35.6951C23.6413 35.6618 23.747 35.6628 23.8436 35.6981C23.9402 35.7333 24.0217 35.8005 24.0747 35.8886C24.1496 36.0259 24.1247 36.1258 24.1559 36.1321C24.1871 36.1383 24.2558 36.0384 24.1996 35.8386C24.156 35.7204 24.0776 35.6181 23.9748 35.5452C23.9039 35.4982 23.8241 35.4663 23.7404 35.4512C23.6567 35.4362 23.5707 35.4384 23.4879 35.4578C23.2878 35.5146 23.1058 35.622 22.9592 35.7697C22.8127 35.9173 22.7067 36.1001 22.6513 36.3006C22.4758 36.7467 22.4116 37.2288 22.4641 37.7053C22.5764 38.6979 23.1633 39.5781 23.8999 39.7404C24.0356 39.7686 24.176 39.7653 24.3102 39.7306C24.4445 39.696 24.5689 39.631 24.674 39.5407C24.7989 39.4033 24.7989 39.291 24.7989 39.2785Z" fill="#A26D5C"/>
<path d="M25.1408 26.0292C25.7754 26.492 26.5159 26.7882 27.2946 26.8907C27.6863 26.9295 28.0787 26.8241 28.3982 26.5942C28.7177 26.3643 28.9424 26.0258 29.0302 25.6421C29.0739 25.2925 28.9677 24.8992 29.18 24.6183C29.3922 24.3374 29.9416 24.3623 30.3599 24.3873C31.8082 24.4685 33.4127 22.7891 33.7061 21.372C33.9096 21.6293 34.203 21.8 34.5273 21.8498C34.8516 21.8996 35.1827 21.8248 35.4541 21.6404C35.8969 21.337 36.2834 20.9589 36.5965 20.523C36.7766 20.2439 37.0219 20.0128 37.3112 19.8497C37.6005 19.6866 37.9252 19.5962 38.2571 19.5865C38.611 19.6887 38.9755 19.7494 39.3434 19.7676C39.9677 19.6802 40.2736 18.8998 40.3423 18.2506C40.4109 17.6013 40.4484 16.8397 40.9666 16.4651C41.4847 16.0905 42.134 16.2653 42.7395 16.3277C43.3451 16.3902 44.1067 16.2091 44.2316 15.6098C44.2505 15.4515 44.2363 15.291 44.1901 15.1385C44.1439 14.9859 44.0667 14.8446 43.9632 14.7233C43.5302 14.1457 42.9154 13.7306 42.2178 13.5449C41.5202 13.3592 40.7804 13.4136 40.1175 13.6995C39.8219 12.8944 39.2958 12.1941 38.605 11.6859C37.9141 11.1776 37.089 10.8839 36.2324 10.8413C35.3758 10.7987 34.5256 11.0091 33.7878 11.4463C33.0499 11.8835 32.457 12.5282 32.0829 13.2999C31.5324 12.8495 30.8815 12.5384 30.1852 12.3929C29.489 12.2474 28.768 12.2719 28.0832 12.4642C27.3984 12.6566 26.77 13.0111 26.2513 13.4978C25.7326 13.9845 25.3388 14.589 25.1034 15.2602C24.4882 15.1322 23.849 15.1876 23.265 15.4195C22.6811 15.6515 22.178 16.0498 21.8184 16.565C21.4587 17.0802 21.2582 17.6897 21.2418 18.3179C21.2254 18.946 21.3937 19.5651 21.726 20.0984C21.2771 20.349 20.8995 20.7098 20.6287 21.1466C20.3578 21.5835 20.2026 22.0822 20.1777 22.5956C20.1777 23.6194 21.2577 24.5933 22.2379 24.2749C22.1329 24.484 22.0702 24.7117 22.0533 24.945C22.0363 25.1783 22.0655 25.4126 22.1391 25.6347C22.2127 25.8567 22.3294 26.062 22.4824 26.239C22.6353 26.4159 22.8217 26.561 23.0307 26.666C23.2398 26.7709 23.4675 26.8336 23.7008 26.8506C23.9341 26.8675 24.1684 26.8384 24.3904 26.7647C24.6125 26.6911 24.8178 26.5745 24.9948 26.4215C25.1717 26.2685 25.3168 26.0822 25.4218 25.8731" fill="#263238"/>
<path d="M40.5596 15.1699C40.5596 15.1699 40.5596 15.2011 40.5596 15.2636C40.5596 15.326 40.5596 15.4134 40.5596 15.532C40.5071 15.869 40.4017 16.1955 40.2474 16.4997C40.0012 16.9909 39.6443 17.4183 39.2049 17.7482C38.63 18.1896 37.9256 18.4288 37.2009 18.4287L37.2821 18.2914C37.4525 18.7355 37.4413 19.2289 37.2508 19.6648C37.0473 20.1152 36.7826 20.5353 36.4642 20.9134C36.3102 21.1399 36.1323 21.3492 35.9336 21.5377C35.7092 21.7102 35.4452 21.824 35.1657 21.8685C34.8754 21.9252 34.5757 21.9098 34.2928 21.8238C34.0098 21.7379 33.7523 21.5839 33.5426 21.3754L33.7236 21.3129C33.6802 21.8268 33.53 22.3259 33.2828 22.7785C33.0356 23.231 32.6967 23.627 32.2877 23.9412C31.8341 24.3166 31.2714 24.5356 30.6833 24.5655C30.1331 24.5673 29.5865 24.4765 29.0664 24.297L29.1913 24.2284C28.9541 24.8315 28.57 25.3659 28.0738 25.7828C27.8486 25.996 27.5789 26.1564 27.2842 26.2525C26.9894 26.3486 26.677 26.378 26.3695 26.3385C25.8481 26.2516 25.363 26.0155 24.973 25.6588C24.583 25.302 24.3048 24.8399 24.172 24.3282L24.2843 24.3782C23.7781 24.6813 23.182 24.7983 22.5988 24.7091C22.1614 24.6525 21.7439 24.492 21.3814 24.2408C21.1542 24.0821 20.9557 23.8858 20.7946 23.6603C20.7372 23.5839 20.691 23.4998 20.6572 23.4105C20.8678 23.7086 21.1299 23.9665 21.4313 24.1722C21.7856 24.4037 22.1902 24.5471 22.6113 24.5904C23.1657 24.6647 23.7287 24.5433 24.2032 24.2471L24.2968 24.1909V24.297C24.4268 24.777 24.6927 25.2092 25.0627 25.5415C25.4326 25.8738 25.8908 26.0921 26.382 26.1699C26.6629 26.2052 26.9481 26.1764 27.2163 26.0855C27.4845 25.9947 27.7285 25.8442 27.9302 25.6455C28.3922 25.2365 28.7461 24.7197 28.9603 24.141L28.9915 24.0473H29.0914C29.5888 24.2221 30.1124 24.3107 30.6396 24.3095C31.1821 24.2841 31.7016 24.0824 32.1192 23.7352C32.5095 23.4381 32.8329 23.0623 33.0685 22.6321C33.304 22.2018 33.4464 21.7269 33.4864 21.238V21.007L33.6549 21.1756C33.8396 21.3594 34.0663 21.4954 34.3155 21.5715C34.5647 21.6477 34.8287 21.6618 35.0846 21.6126C35.3336 21.5746 35.5694 21.476 35.7713 21.3254C35.9547 21.1557 36.12 20.9674 36.2645 20.7636C36.5799 20.4018 36.8407 19.9959 37.0386 19.5587C37.1293 19.3642 37.18 19.1534 37.1875 18.9388C37.195 18.7243 37.1592 18.5105 37.0823 18.3101L37.0386 18.1915H37.1634C37.8553 18.1987 38.5306 17.9795 39.0863 17.5672C39.5236 17.2691 39.8885 16.8765 40.1538 16.4185C40.3601 16.0288 40.4974 15.6064 40.5596 15.1699Z" fill="#455A64"/>
<path d="M40.8732 41.4695C40.8357 41.2822 39.6246 41.6006 38.5009 40.7953C37.3772 39.9899 37.1649 38.6664 36.9963 38.7039C36.8278 38.7414 36.834 39.0473 36.9651 39.5966C37.1427 40.304 37.5624 40.9269 38.1513 41.3571C38.7183 41.7698 39.4232 41.9466 40.1178 41.8503C40.636 41.7629 40.8981 41.5507 40.8732 41.4695Z" fill="#263238"/>
<path d="M70.2965 87.3025C70.1841 86.9092 63.729 69.3417 61.6751 65.4961C59.2091 60.895 54.0275 58.8599 50.8124 58.6289C47.5974 58.3979 13.199 61.176 13.199 61.176C13.199 61.176 2.92322 63.4734 1.61221 72.3133C0.101429 82.4892 -1.21582 105.781 -1.21582 105.781L14.4414 97.7531L16.4703 92.6464L48.8709 99.8757L56.7806 88.2139L70.2965 87.3025Z" fill="#242468"/>
<path d="M10.9261 62.2062L24.3608 56.2817L25.8653 50.4883L41.5537 57.9048L44.8375 54.2715L46.2171 58.3668L49.6507 59.4905L57.6853 73.6182V103.721L59.3085 129.692L57.5418 133.787L43.1519 135.91C41.5788 136.141 39.9804 136.141 38.4073 135.91L9.19056 131.146L8.44141 122.55L11.5629 98.8957L10.9261 62.2062Z" fill="#242468"/>
<path d="M25.8646 50.4883C25.8646 50.4883 27.6189 50.994 32.1075 53.3975C36.5212 55.751 41.5343 57.9048 41.5343 57.9048L41.1535 64.9843L24.46 56.6063" fill="#242468"/>
<path d="M44.8385 54.2734L41.5547 57.9068L43.3089 65.4982L46.2369 58.6372" fill="#242468"/>
<g opacity="0.3">
<path d="M41.6163 58.6898C41.7599 58.8022 42.6714 67.4299 42.6714 67.4299L25.9404 57.3164L41.1731 64.9639L41.6163 58.6898Z" fill="black"/>
</g>
<path d="M9.92722 63.2441C9.896 63.2754 10.3767 63.6499 11.0572 64.3491C12.8251 66.1796 14.0524 68.4634 14.6032 70.9479C14.8092 71.8968 14.8591 72.5024 14.8966 72.4961C14.9195 72.3555 14.9195 72.2122 14.8966 72.0716C14.8735 71.6839 14.8255 71.2982 14.753 70.9166C14.5304 69.6494 14.109 68.4253 13.5044 67.2895C12.8945 66.155 12.1109 65.1229 11.182 64.2305C10.9046 63.9602 10.6083 63.7099 10.2955 63.4814C10.1822 63.3885 10.0586 63.3089 9.92722 63.2441Z" fill="#263238"/>
<path d="M41.3975 57.8466C41.6562 58.3412 41.9396 58.8225 42.2465 59.2887C42.9301 60.4427 43.5552 61.6303 44.1194 62.8471C44.1756 62.9658 44.2317 63.0781 44.2817 63.1905L44.3878 63.4153L44.4939 63.1905C45.0391 62.0441 45.5042 60.8614 45.8861 59.6508C46.0297 59.1951 46.1358 58.8205 46.1982 58.5583C46.2487 58.4268 46.2741 58.2871 46.2732 58.1463C46.2419 58.1463 46.0672 58.7019 45.7363 59.6008C45.3104 60.7878 44.8249 61.9526 44.2817 63.0906H44.4939L44.3316 62.7473C43.7576 61.5219 43.1006 60.3371 42.3651 59.2013C42.0779 58.7705 41.8345 58.4272 41.6597 58.1899C41.4849 57.9527 41.4099 57.8341 41.3975 57.8466Z" fill="#263238"/>
<path d="M24.3613 56.2852C24.433 56.3394 24.5105 56.3855 24.5923 56.4225L25.2666 56.7783L27.7637 58.0706C29.8676 59.1631 32.758 60.7239 35.9419 62.4407C37.8834 63.477 39.7251 64.4384 41.3295 65.2375L41.4793 65.3124V65.1188C41.4793 63.04 41.5168 61.292 41.5293 60.0246C41.5293 59.4004 41.5293 58.9509 41.5293 58.5888C41.5415 58.4184 41.5415 58.2473 41.5293 58.0769C41.5 58.2459 41.4854 58.4172 41.4856 58.5888C41.4856 58.9446 41.4544 59.4253 41.4294 60.0184C41.3982 61.267 41.3545 63.04 41.2983 65.1126L41.4481 65.0252C39.8562 64.2074 38.0208 63.2397 36.073 62.2034C32.8829 60.4991 29.9862 58.9634 27.8636 57.9021C26.8023 57.3777 25.9345 56.9594 25.3352 56.6535L24.636 56.3413C24.5477 56.3092 24.4552 56.2903 24.3613 56.2852Z" fill="#263238"/>
<path d="M55.6452 61.7471C55.6077 61.7471 55.8699 62.2091 56.2133 62.9957C56.6482 63.9817 56.9687 65.0144 57.1684 66.0734C57.36 67.1358 57.427 68.2168 57.3682 69.2947C57.3245 70.125 57.2371 70.6307 57.2746 70.637C57.3269 70.5263 57.3626 70.4085 57.3807 70.2874C57.4485 69.9636 57.4985 69.6364 57.5305 69.3072C57.7544 67.1121 57.3473 64.8987 56.3568 62.927C56.2133 62.6284 56.0485 62.3405 55.8637 62.0655C55.7326 61.8407 55.6577 61.7346 55.6452 61.7471Z" fill="#263238"/>
<path d="M42.3223 66.7332C42.7262 66.0945 43.065 65.4169 43.3336 64.7105C43.6725 64.0411 43.9463 63.3408 44.1514 62.6191C43.7403 63.2525 43.3991 63.9286 43.1338 64.6356C42.7914 65.3048 42.5194 66.0078 42.3223 66.7332Z" fill="#263238"/>
<path d="M8.17311 63.6953C8.17311 63.6953 2.99776 67.4411 2.3485 69.4825C1.69924 71.5239 -1.04764 104.998 -1.53458 108.981C-2.02153 112.964 -2.50848 120.4 0.569269 122.828C3.64701 125.256 10.277 127.079 10.277 127.079L16.4012 114.438L13.1549 107.639L16.4012 82.2305L8.17311 63.6953Z" fill="#E0E0E0"/>
</g>
</svg>
